<svg aria-hidden="true" style="position: absolute; width: 0; height: 0; overflow: hidden;" version="1.1" xmlns="http://www.w3.org/2000/svg" xmlns:xlink="http://www.w3.org/1999/xlink">
<defs>
<symbol id="icon-tent" viewBox="0 0 32 32">
<path d="M31.333 32h-30.667c-0.248-0-0.464-0.136-0.578-0.337l-0.002-0.003c-0.056-0.096-0.089-0.211-0.089-0.333s0.033-0.238 0.091-0.336l-0.002 0.003 15.133-24.853-3.12-5.127 1.133-0.667 2.767 4.513 2.767-4.54 1.133 0.667-3.12 5.153 15.12 24.847c0.056 0.096 0.089 0.211 0.089 0.333s-0.033 0.238-0.091 0.336l0.002-0.003c-0.113 0.203-0.323 0.34-0.566 0.347l-0.001 0zM1.853 30.667h28.293l-14.147-23.24z"></path>
<path d="M15.333 6h1.333v8.667h-1.333z"></path>
<path d="M26.273 31.873c-6.627-4.873-9.24-10.34-10.273-13.773-1.033 3.433-3.647 8.9-10.273 13.773l-0.787-1.080c9.907-7.28 10.393-16.067 10.393-16.127 0-0.368 0.298-0.667 0.667-0.667v0c0.368 0 0.667 0.298 0.667 0.667v0c0 0.087 0.52 8.9 10.393 16.153zM30.667 24.667h1.333v6.667h-1.333zM0 24.667h1.333v6.667h-1.333zM2.667 0h4v1.333h-4zM5.333 3.333h4v1.333h-4zM0 8.667h4v1.333h-4zM22.667 2h4v1.333h-4zM28 6.667h4v1.333h-4zM25.333 11.333h4v1.333h-4z"></path>
</symbol>
</defs>
</svg>
